# AST/ASF file generated using VICON BodyLanguage
# -----------------------------------------------
:version 1.10
:name VICON
:units
  mass 1.0
  length 0.45
  angle deg
:documentation
   .ast/.asf automatically generated from VICON data using
   VICON BodyBuilder and BodyLanguage model FoxedUp or BRILLIANT.MOD
:root
   order TX TY TZ RX RY RZ
   axis XYZ
   position 0 0 0  
   orientation 0 0 0 
:bonedata
  begin
     id 1 
     name lhipjoint
     direction 0.78388 -0.462562 0.414208 
     length 3.01181 
     axis 0 0 0  XYZ
  end
  begin
     id 2 
     name lfemur
     direction 0.34202 -0.939693 0  
     length 6.04673  
     axis 0 0 20  XYZ
    dof rx ry rz
    limits (-160.0 20.0)
           (-70.0 70.0)
           (-60.0 70.0)
  end
  begin
     id 3 
     name ltibia
     direction 0.34202 -0.939693 0   
     length 7.211   
     axis 0 0 20   XYZ
    dof rx
    limits (-10.0 170.0)
  end
  begin
     id 4 
     name lfoot
     direction 0.121887 -0.334882 0.934344   
     length 2.13567   
     axis -90 7.62852e-016 20   XYZ
    dof rx rz
    limits (-45.0 90.0)
           (-70.0 20.0)
  end
  begin
     id 5 
     name ltoes
     direction 1.53555e-011 -4.2179e-011 1   
     length 1.05957   
     axis -90 7.62852e-016 20   XYZ
    dof rx
    limits (-90.0 20.0)
  end
  begin
     id 6 
     name rhipjoint
     direction -0.769387 -0.475875 0.426129   
     length 2.92756  
     axis 0 0 0  XYZ 
  end
  begin
     id 7 
     name rfemur
     direction -0.34202 -0.939693 0   
     length 6.35468   
     axis 0 0 -20   XYZ
    dof rx ry rz
    limits (-160.0 20.0)
           (-70.0 70.0)
           (-70.0 60.0)
  end
  begin
     id 8 
     name rtibia
     direction -0.34202 -0.939693 0   
     length 7.37886   
     axis 0 0 -20   XYZ
    dof rx
    limits (-10.0 170.0)
 end
 begin
     id 9 
     name rfoot
     direction -0.101763 -0.279592 0.954711   
     length 2.21478  
     axis -90 -7.62852e-016 -20   XYZ
    dof rx rz
    limits (-45.0 90.0)
           (-20.0 70.0)
  end
  begin
     id 10 
     name rtoes
     direction -1.53494e-011 -4.21851e-011 1   
     length 1.10506   
     axis -90 -7.62852e-016 -20   XYZ
    dof rx
    limits (-90.0 20.0)
  end
  begin
     id 11 
     name lowerback
     direction 0.00747405 0.999267 0.0375481   
     length 2.13259   
     axis 0 0 0   XYZ
    dof rx ry rz
    limits (-20.0 45.0)
           (-30.0 30.0)
           (-30.0 30.0)
  end
  begin
     id 12 
     name upperback
     direction 0.00661626 0.996177 0.0871029   
     length 2.10528   
     axis 0 0 0   XYZ
    dof rx ry rz
    limits (-20.0 45.0)
           (-30.0 30.0)
           (-30.0 30.0)
  end
  begin
     id 13 
     name thorax
     direction 0.00320659 0.997679 0.0680167   
     length 2.11338   
     axis 0 0 0   XYZ
    dof rx ry rz
    limits (-20.0 45.0)
           (-30.0 30.0)
           (-30.0 30.0)
  end
  begin
     id 14 
     name lowerneck
     direction 0.0374841 0.973033 0.227602   
     length 1.42765   
     axis 0 0 0   XYZ
    dof rx ry rz
    limits (-20.0 45.0)
           (-30.0 30.0)
           (-30.0 30.0)
  end
  begin
     id 15 
     name upperneck
     direction 0.00481585 0.989155 -0.146795   
     length 1.47593   
     axis 0 0 0   XYZ
    dof rx ry rz
    limits (-20.0 45.0)
           (-30.0 30.0)
           (-30.0 30.0)
  end
  begin
     id 16
     name head
     direction -0.00292522 0.997206 -0.0746423  
     length 1.48116  
     axis 0 0 0   XYZ
    dof rx ry rz
    limits (-20.0 45.0)
           (-30.0 30.0)
           (-30.0 30.0)
  end
  begin
     id 17 
     name lclavicle
     direction 0.951444 0.305606 0.0368784  
     length 3.01855  
     axis 0 0 0   XYZ
    dof ry rz
    limits (-20.0 10.0)
           (0.0 20.0)
  end
  begin
     id 18 
     name lhumerus
     direction 1 -4.48977e-011 2.61664e-027   
     length 5.52731   
     axis 180 -30 -90   XYZ
    dof rx ry rz
    limits (-60.0 90.0)
           (-90.0 90.0)
           (-90.0 90.0)
  end
  begin
     id 19
     name lradius
     direction 1 -4.48944e-011 8.22157e-027   
     length 3.11059   
     axis 180 -30 -90   XYZ
    dof rx
    limits (-10.0 170.0)
  end
  begin
     id 20
     name lwrist
     direction 1 -4.48976e-011 1.5779e-026   
     length 1.5553   
     axis -1.15221e-014 90 90   XYZ
    dof ry
    limits (-180.0 0.0)
 end
  begin
     id 21 
     name lhand
     direction 1 -4.49025e-011 3.1558e-026   
     length 0.419626   
     axis -2.01367e-014 90 90   XYZ
    dof rx rz
    limits (-90.0 90.0)
           (-45.0 45.0)
  end
  begin
     id 22 
     name lfingers
     direction 1 -4.4904e-011 6.31161e-026   
     length 0.338313   
     axis -4.02734e-014 90 90   XYZ
    dof rx
    limits (0.0 90.0)
  end
  begin
     id 23
     name lthumb
     direction 0.707107 -6.35004e-011 0.707107   
     length 0.485752   
     axis -90 45 2.85299e-015   XYZ
    dof rx rz
    limits (-45.0 45.0)
           (-45.0 45.0)
  end
  begin
     id 24 
     name rclavicle
     direction -0.968876 0.223791 0.105816   
     length 3.04177  
     axis 0 0 0   XYZ 
    dof ry rz
    limits (-10.0 20.0)
           (-20.0 0.0)
  end
  begin
     id 25 
     name rhumerus
     direction -1 -4.48962e-011 -1.01384e-027  
     length 5.25396   
     axis 180 30 90   XYZ
    dof rx ry rz
    limits (-90.0 60.0)
           (-90.0 90.0)
           (-90.0 90.0)
  end
  begin
     id 26 
     name rradius
     direction -1 -4.48955e-011 8.88542e-027   
     length 3.10567   
     axis 180 30 90   XYZ
    dof rx
    limits (-10.0 170.0)
  end
  begin
     id 27 
     name rwrist
     direction -1 -4.48994e-011 1.5779e-026   
     length 1.55283   
     axis -1.15221e-014 -90 -90   XYZ
    dof ry
    limits (-180.0 0.0)
  end
  begin
     id 28
     name rhand
     direction -1 -4.48891e-011 3.1558e-026   
     length 0.498676   
     axis -2.01367e-014 -90 -90   XYZ
    dof rx rz
    limits (-90.0 90.0)
           (-45.0 45.0)
  end
  begin
     id 29
     name rfingers
     direction -1 -4.48972e-011 6.31161e-026   
     length 0.402045   
     axis -4.02734e-014 -90 -90   XYZ
    dof rx
    limits (0.0 90.0)
  end
  begin
     id 30
     name rthumb
     direction -0.707107 -6.34849e-011 0.707107   
     length 0.577259   
     axis -90 -45 -2.85299e-015   XYZ
    dof rx rz
    limits (-45.0 45.0)
           (-45.0 45.0)
  end
:hierarchy
  begin
    root lhipjoint rhipjoint lowerback
    lhipjoint lfemur
    lfemur ltibia
    ltibia lfoot
    lfoot ltoes
    rhipjoint rfemur
    rfemur rtibia
    rtibia rfoot
    rfoot rtoes
    lowerback upperback
    upperback thorax
    thorax lowerneck lclavicle rclavicle
    lowerneck upperneck
    upperneck head
    lclavicle lhumerus
    lhumerus lradius
    lradius lwrist
    lwrist lhand lthumb
    lhand lfingers
    rclavicle rhumerus
    rhumerus rradius
    rradius rwrist
    rwrist rhand rthumb
    rhand rfingers
  end

#!OML:ASF H:\Pregnant\Project 1\Capture day 1\Session 1\femalepreg.ASF
:FULLY-SPECIFIED
:DEGREES
69
root 7.21147 15.7674 24.9913 23.2004 -83.9485 -5.25193
lowerback -22.3284 0.729704 -0.770855
upperback -6.95936 0.682773 -0.476095
thorax 4.84776 0.132993 0.0872403
lowerneck -26.0605 2.34552 3.54137
upperneck 30.6687 0.255644 3.39132
head 15.1134 0.928976 0.839182
rclavicle -6.95746e-016 -3.18055e-015
rhumerus -3.23248 -27.8702 -48.287
rradius 129.072
rwrist -27.101
rhand -50.6813 -12.0582
rfingers 7.12502
rthumb -23.2429 -40.6755
lclavicle -6.95746e-016 -3.18055e-015
lhumerus -42.0621 -15.728 91.2125
lradius 30.0896
lwrist 41.0425
lhand -27.2267 -4.33069
lfingers 7.12502
lthumb -0.639036 25.6481
rfemur -24.0952 22.0807 12.2742
rtibia 25.6125
rfoot -15.4407 -23.8285
rtoes -7.80671
lfemur 0 0 0
ltibia 0
lfoot 0 0
ltoes 0
70
root 7.21051 15.7672 24.9899 23.2346 -83.965 -5.29343
lowerback -22.3566 0.729499 -0.788474
upperback -6.94575 0.686641 -0.467183
thorax 4.87643 0.135052 0.108078
lowerneck -26.1082 2.35069 3.55176
upperneck 30.7295 0.259402 3.37107
head 15.1517 0.929606 0.831458
rclavicle -6.73383e-015 1.05356e-014
rhumerus -3.52345 -26.8713 -48.145
rradius 128.172
rwrist -19.1277
rhand -49.7715 -7.48944
rfingers 7.12502
rthumb -22.3698 -36.2143
lclavicle -6.73383e-015 1.05356e-014
lhumerus -42.0263 -15.7642 91.2467
lradius 30.0719
lwrist 41.0428
lhand -27.211 -4.32215
lfingers 7.12502
lthumb -0.623914 25.6567
rfemur -24.0916 22.0938 12.2815
rtibia 25.6167
rfoot -15.4578 -23.8137
rtoes -7.73642
lfemur 0 0 0
ltibia 0
lfoot 0 0
ltoes 0
71
root 7.20958 15.7671 24.9884 23.2538 -83.9813 -5.32272
lowerback -22.3864 0.726851 -0.807042
upperback -6.92548 0.688146 -0.458886
thorax 4.91314 0.136098 0.128229
lowerneck -26.1591 2.35752 3.56042
upperneck 30.7751 0.263836 3.3605
head 15.1838 0.931795 0.828036
rclavicle -1.79403e-014 7.95139e-016
rhumerus -3.76575 -26.0521 -47.9917
rradius 127.193
rwrist -10.9592
rhand -49.7262 -3.07142
rfingers 7.12502
rthumb -22.3263 -31.8015
lclavicle -1.79403e-014 7.95139e-016
lhumerus -41.9982 -15.8213 91.2916
lradius 30.0911
lwrist 41.0812
lhand -27.2051 -4.3081
lfingers 7.12502
lthumb -0.618144 25.6707
rfemur -24.0849 22.1102 12.2881
rtibia 25.6214
rfoot -15.4754 -23.8018
rtoes -7.66707
lfemur 0 0 0
ltibia 0
lfoot 0 0
ltoes 0
72
root 7.20866 15.7669 24.9869 23.2542 -83.9968 -5.33577
lowerback -22.4185 0.727653 -0.821134
upperback -6.89798 0.694393 -0.459576
thorax 4.95901 0.139558 0.137441
lowerneck -26.2142 2.36133 3.57131
upperneck 30.8034 0.258362 3.36452
head 15.2092 0.932298 0.828132
rclavicle -9.59136e-015 -9.93923e-016
rhumerus -3.95368 -25.5053 -47.8335
rradius 126.176
rwrist -2.83473
rhand -50.5033 1.33459
rfingers 7.12502
rthumb -23.0721 -27.3042
lclavicle -9.59136e-015 -9.93923e-016
lhumerus -41.9886 -15.9437 91.3587
lradius 30.1635
lwrist 41.1956
lhand -27.2132 -4.28361
lfingers 7.12502
lthumb -0.62598 25.6952
rfemur -24.075 22.1201 12.2957
rtibia 25.6267
rfoot -15.4918 -23.7871
rtoes -7.61589
lfemur 0 0 0
ltibia 0
lfoot 0 0
ltoes 0
73
root 7.20776 15.7667 24.9853 23.2365 -84.011 -5.33264
lowerback -22.4482 0.722211 -0.843716
upperback -6.86847 0.694146 -0.453859
thorax 5.0057 0.139955 0.156707
lowerneck -26.2627 2.36733 3.57636
upperneck 30.816 0.257717 3.37548
head 15.2258 0.935066 0.832771
rclavicle 1.76421e-015 -5.96354e-016
rhumerus -4.06337 -25.2294 -47.6791
rradius 125.183
rwrist 4.99556
rhand -51.9965 6.15645
rfingers 7.12502
rthumb -24.5042 -22.2959
lclavicle 1.76421e-015 -5.96354e-016
lhumerus -41.9463 -15.9554 91.3781
lradius 30.2124
lwrist 41.2182
lhand -27.2099 -4.284
lfingers 7.12502
lthumb -0.622827 25.6948
rfemur -24.0616 22.1174 12.3057
rtibia 25.6314
rfoot -15.5013 -23.7661
rtoes -7.60021
lfemur 0 0 0
ltibia 0
lfoot 0 0
ltoes 0
74
root 7.20692 15.7665 24.9838 23.2099 -84.0242 -5.32362
lowerback -22.4755 0.719252 -0.8644
upperback -6.83616 0.697529 -0.456021
thorax 5.05434 0.14216 0.167361
lowerneck -26.3039 2.37173 3.58977
upperneck 30.8097 0.247822 3.39883
head 15.2323 0.936654 0.838895
rclavicle 5.71506e-015 1.82882e-014
rhumerus -4.11054 -25.2431 -47.5447
rradius 124.276
rwrist 12.2988
rhand -53.9588 12.1138
rfingers 7.12502
rthumb -26.3838 -16.0705
lclavicle 5.71506e-015 1.82882e-014
lhumerus -41.9122 -15.9849 91.3935
lradius 30.2889
lwrist 41.2628
lhand -27.2145 -4.28159
lfingers 7.12502
lthumb -0.627239 25.6972
rfemur -24.0434 22.0969 12.3211
rtibia 25.6349
rfoot -15.4975 -23.7355
rtoes -7.63738
lfemur 0 0 0
ltibia 0
lfoot 0 0
ltoes 0
75
root 7.20615 15.7662 24.9822 23.1883 -84.0362 -5.3221
lowerback -22.5004 0.71797 -0.884918
upperback -6.80229 0.703459 -0.461369
thorax 5.10345 0.145647 0.175155
lowerneck -26.3375 2.37361 3.60509
upperneck 30.7873 0.231326 3.43136
head 15.23 0.93692 0.846822
rclavicle -1.90088e-014 3.57812e-015
rhumerus -4.0987 -25.4993 -47.4426
rradius 123.508
rwrist 18.8913
rhand -56.1046 20.1813
rfingers 7.12502
rthumb -28.4362 -7.67802
lclavicle -1.90088e-014 3.57812e-015
lhumerus -41.8982 -16.0516 91.4255
lradius 30.4046
lwrist 41.3567
lhand -27.2373 -4.28566
lfingers 7.12502
lthumb -0.649314 25.6931
rfemur -24.0209 22.0772 12.339
rtibia 25.6358
rfoot -15.4873 -23.7092
rtoes -7.69387
lfemur 0 0 0
ltibia 0
lfoot 0 0
ltoes 0
76
root 7.20551 15.766 24.9806 23.1739 -84.0466 -5.33044
lowerback -22.5213 0.715362 -0.903946
upperback -6.76786 0.707539 -0.46837
thorax 5.15124 0.148256 0.179823
lowerneck -26.3604 2.37714 3.62267
upperneck 30.751 0.214193 3.47326
head 15.2189 0.938385 0.857765
rclavicle -1.72197e-014 -4.96962e-015
rhumerus -4.03991 -25.92 -47.3835
rradius 122.914
rwrist 24.6472
rhand -58.0399 31.157
rfingers 7.12502
rthumb -30.2839 3.62154
lclavicle -1.72197e-014 -4.96962e-015
lhumerus -41.859 -16.0378 91.4103
lradius 30.4979
lwrist 41.3783
lhand -27.2481 -4.31766
lfingers 7.12502
lthumb -0.659754 25.6611
rfemur -23.9937 22.046 12.3624
rtibia 25.6344
rfoot -15.4699 -23.6745
rtoes -7.77579
lfemur 0 0 0
ltibia 0
lfoot 0 0
ltoes 0
77
root 7.20499 15.7657 24.9791 23.1888 -84.0548 -5.37149
lowerback -22.5383 0.717596 -0.914559
upperback -6.73314 0.716572 -0.481435
thorax 5.19754 0.1533 0.17444
lowerneck -26.3755 2.37777 3.64467
upperneck 30.705 0.189618 3.52078
head 15.2019 0.937911 0.8685
rclavicle 1.77664e-014 3.37934e-015
rhumerus -3.96969 -26.4242 -47.3582
rradius 122.5
rwrist 29.5569
rhand -59.4019 44.5322
rfingers 7.12502
rthumb -31.5823 17.2434
lclavicle 1.77664e-014 3.37934e-015
lhumerus -41.8092 -15.9954 91.3702
lradius 30.583
lwrist 41.3627
lhand -27.2441 -4.35909
lfingers 7.12502
lthumb -0.65581 25.6196
rfemur -23.961 22.0257 12.389
rtibia 25.6301
rfoot -15.4575 -23.6473
rtoes -7.8307
lfemur 0 0 0
ltibia 0
lfoot 0 0
ltoes 0
